<svg enable-background="new 0 0 512 512" version="1.1" viewBox="0 0 512 512" xml:space="preserve" xmlns="http://www.w3.org/2000/svg" class="icon">
		<path d="M458.667,0H53.333C23.893,0.035,0.035,23.893,0,53.333V352h21.333V53.333c0-17.673,14.327-32,32-32h405.333    c17.673,0,32,14.327,32,32v53.333H512V53.333C511.965,23.893,488.107,0.035,458.667,0z"/>
		<path d="M490.667,298.667v160c0,17.673-14.327,32-32,32h-256V512h256c29.441-0.035,53.298-23.893,53.333-53.333v-160H490.667z"/>
		<rect x="42.667" y="85.333" width="426.67" height="21.333"/>
		<rect x="53.333" y="42.667" width="21.333" height="21.333"/>
		<rect x="96" y="42.667" width="21.333" height="21.333"/>
		<rect x="437.33" y="42.667" width="21.333" height="21.333"/>
		<path d="m170.35 264.08c-7.245-29.411-33.394-50.251-63.68-50.752-30.286 0.501-56.435 21.341-63.68 50.752-0.213 0.844-0.321 1.711-0.32 2.581v21.024c0 48.021 28.117 85.643 64 85.643s64-37.621 64-85.643v-21.024c0-0.87-0.107-1.737-0.32-2.581zm-21.014 23.606c0 35.509-19.136 64.309-42.667 64.309-23.53 0-42.666-28.8-42.666-64.309v-19.52c5.277-19.356 22.612-32.968 42.667-33.504 20.049 0.541 37.38 14.146 42.667 33.493v19.531z"/>
		<path d="m160 373.33c-0.859 0.055-1.72 0.055-2.579 0-11.07-0.712-19.467-10.263-18.754-21.333h-21.333c-0.024 0.815-0.024 1.631 0 2.447 0.676 22.888 19.778 40.896 42.667 40.22 17.673 0 32 14.327 32 32v85.333h21.333v-85.333c-0.036-29.441-23.893-53.298-53.334-53.334z"/>
		<path d="m96 352h-21.333c0.054 0.851 0.054 1.705 0 2.556-0.706 11.076-10.257 19.483-21.333 18.777-29.441 0.036-53.299 23.893-53.334 53.334v85.333h21.333v-85.333c0-17.673 14.327-32 32-32 0.815 0.024 1.631 0.024 2.447 0 22.889-0.676 40.896-19.778 40.22-42.667z"/>
		<rect x="42.667" y="437.33" width="21.333" height="74.667"/>
		<rect x="149.33" y="437.33" width="21.333" height="74.667"/>
			<polygon points="234.67 330.67 234.67 330.67"/>
			<path d="m490.67 128h-341.33c-11.782 0-21.333 9.551-21.333 21.333v42.667h21.333v-42.667h341.33v106.67h-213.33c-3.24-1e-3 -6.305 1.471-8.331 4l-23.669 29.589v-22.923c0-5.891-4.776-10.667-10.667-10.667h-42.666v21.333h32v42.668c0 5.891 4.776 10.667 10.667 10.667 3.237-2e-3 6.297-1.473 8.32-4l39.467-49.333h208.21c11.782 0 21.333-9.551 21.333-21.333v-106.67c0-11.782-9.551-21.333-21.333-21.333z"/>
		<rect x="256" y="213.33" width="202.67" height="21.333"/>
		<rect x="181.33" y="170.67" width="277.33" height="21.333"/>
		<path d="m448 309.33h-149.33c-11.782 0-21.333 9.551-21.333 21.333v64c0 11.782 9.551 21.333 21.333 21.333h42.667v32c-1e-3 4.314 2.596 8.204 6.581 9.856 1.294 0.54 2.683 0.815 4.085 0.811 2.829-1e-3 5.541-1.125 7.541-3.125l39.542-39.541h48.917c11.782 0 21.333-9.551 21.333-21.333v-64c0-11.782-9.551-21.334-21.333-21.334zm0 85.334h-53.333c-2.829 1e-3 -5.541 1.125-7.541 3.125l-24.459 24.459v-16.917c0-5.891-4.776-10.667-10.667-10.667h-53.333v-64h149.33v64z"/>
		<rect x="320" y="352" width="106.67" height="21.333"/>
</svg>