<!DOCTYPE svg  PUBLIC '-//W3C//DTD SVG 1.1//EN'  'http://www.w3.org/Graphics/SVG/1.1/DTD/svg11.dtd'>
<svg enable-background="new 0 0 35 35" version="1.1" viewBox="0 0 35 35" xml:space="preserve" xmlns="http://www.w3.org/2000/svg" class="icon">
	<path d="m25.302 0h-15.604c-1.3 0-2.364 1.063-2.364 2.364v30.271c0 1.301 1.064 2.365 2.364 2.365h15.604c1.3 0 2.364-1.062 2.364-2.364v-30.272c0-1.301-1.064-2.364-2.364-2.364zm-10.298 1.704h4.992c0.158 0 0.286 0.128 0.286 0.287 0 0.158-0.128 0.286-0.286 0.286h-4.992c-0.158 0-0.286-0.128-0.286-0.286 0-0.159 0.128-0.287 0.286-0.287zm2.496 32.114c-0.652 0-1.182-0.529-1.182-1.183s0.529-1.182 1.182-1.182 1.182 0.528 1.182 1.182-0.53 1.183-1.182 1.183zm8.521-3.193h-17.042v-26.876h17.042v26.876zm-8.521-7.936c-2.264 0-4.391-0.881-5.99-2.48-0.23-0.232-0.23-0.607 0-0.839 0.232-0.231 0.607-0.231 0.84 0 1.375 1.376 3.205 2.134 5.15 2.134s3.775-0.758 5.15-2.134c0.23-0.231 0.605-0.231 0.84 0 0.23 0.231 0.23 0.606 0 0.839-1.599 1.6-3.726 2.48-5.99 2.48zm-1.336-9.677c0 0.794-0.645 1.438-1.439 1.438-0.793 0-1.438-0.644-1.438-1.438 0-0.795 0.645-1.438 1.438-1.438 0.795-1e-3 1.439 0.643 1.439 1.438zm5.549 0c0 0.794-0.645 1.438-1.438 1.438s-1.438-0.644-1.438-1.438c0-0.795 0.646-1.438 1.438-1.438 0.791 0 1.438 0.643 1.438 1.438z"/>
</svg>