<?xml version="1.0" encoding="iso-8859-1"?>
<!-- Generator: Adobe Illustrator 16.0.0, SVG Export Plug-In . SVG Version: 6.00 Build 0)  -->
<!DOCTYPE svg PUBLIC "-//W3C//DTD SVG 1.1//EN" "http://www.w3.org/Graphics/SVG/1.1/DTD/svg11.dtd">
<svg version="1.1" id="Capa_1" xmlns="http://www.w3.org/2000/svg" xmlns:xlink="http://www.w3.org/1999/xlink" x="0px" y="0px"
	 width="33.625px" height="33.625px" viewBox="0 0 33.625 33.625" style="enable-background:new 0 0 33.625 33.625;"
	 xml:space="preserve">
<g>
	<path d="M0,9.318v14.989c0,1.25,1.021,2.271,2.271,2.271h29.084c1.248,0,2.27-1.021,2.27-2.271V9.318
		c0-1.248-1.021-2.271-2.27-2.271H2.271C1.021,7.046,0,8.07,0,9.318z M1.636,19.21v-4.794c0-0.152,0.123-0.274,0.275-0.274
		c0.152,0,0.275,0.123,0.275,0.274v4.794c0,0.151-0.123,0.274-0.275,0.274C1.759,19.486,1.636,19.363,1.636,19.21z M32.492,16.812
		c0,0.627-0.51,1.137-1.137,1.137s-1.14-0.509-1.14-1.137c0-0.627,0.513-1.136,1.14-1.136S32.492,16.187,32.492,16.812z
		 M29.421,8.628V25H3.601V8.628H29.421z M16.902,22.791l-1.32-7.48l-1.42,4.674l-1.127-3.208l-0.455,0.847H6.576
		c-0.289,0-0.52-0.231-0.52-0.521s0.23-0.521,0.52-0.521h5.381l1.279-2.375l0.854,2.428l1.76-5.795l1.335,7.547l1.209-3.884
		l1.252,3.116l0.521-1.041h6.352c0.289,0,0.521,0.232,0.521,0.521s-0.231,0.521-0.521,0.521h-5.707l-1.275,2.524l-1.018-2.541
		L16.902,22.791z"/>
</g>
<g>
</g>
<g>
</g>
<g>
</g>
<g>
</g>
<g>
</g>
<g>
</g>
<g>
</g>
<g>
</g>
<g>
</g>
<g>
</g>
<g>
</g>
<g>
</g>
<g>
</g>
<g>
</g>
<g>
</g>
</svg>
