<svg width="447pt" height="447pt" viewBox="0 0 447.53 447" xmlns="http://www.w3.org/2000/svg" class="icon">
<path d="m144 40.266c0 4.418-3.582 8-8 8s-8-3.582-8-8 3.582-8 8-8 8 3.582 8 8z"/>
<path d="m160 72.266c0-4.418-3.582-8-8-8h-32c-4.418 0-8 3.582-8 8v40h48z"/>
<path d="m80 40.266c0 4.418-3.582 8-8 8s-8-3.582-8-8 3.582-8 8-8 8 3.582 8 8z"/>
<path d="m8 144.27h144c2.1211 0 4.1562 0.84375 5.6562 2.3438l50.344 50.344v-188.69c0-4.418-3.582-8-8-8h-192c-4.418 0-8 3.582-8 8v128c0 4.418 3.582 8 8 8zm24-72c0.046875-10.816 7.3164-20.262 17.762-23.074-4.0664-10.023-0.92578-21.531 7.6758-28.098 8.5977-6.5625 20.527-6.5625 29.125 0 8.6016 6.5664 11.742 18.074 7.6758 28.098 3.6289 0.98047 6.9727 2.8008 9.7617 5.3125 2.7891-2.5117 6.1328-4.332 9.7617-5.3125-4.0664-10.023-0.92578-21.531 7.6758-28.098 8.5977-6.5625 20.527-6.5625 29.125 0 8.6016 6.5664 11.742 18.074 7.6758 28.098 10.445 2.8125 17.715 12.258 17.762 23.074v48c0 4.418-3.582 8-8 8h-128c-4.418 0-8-3.582-8-8z"/>
<path d="m96 72.266c0-4.418-3.582-8-8-8h-32c-4.418 0-8 3.582-8 8v40h48z"/>
<path d="m279.37 121.14 5.6484 5.6562 79.199-79.199-5.6562-5.6484c-1.5-1.5039-3.5352-2.3477-5.6602-2.3477-2.1211 0-4.1562 0.84375-5.6602 2.3477l-67.879 67.918c-3.0938 3.1211-3.0898 8.1562 0.007813 11.273z"/>
<path d="m120.96 279.53c-3.125-3.1172-8.1836-3.1172-11.305 0l-67.879 67.891c-3.125 3.1211-3.125 8.1875 0 11.309l5.6562 5.6562 79.199-79.199z"/>
<path d="m211.49 426.61 214.95-214.96c28.117-28.117 28.117-73.707 0-101.82l-50.914-50.91-79.199 79.199 28.289 28.277c15.594 15.633 15.594 40.938 0 56.57l-101.82 101.82c-15.633 15.598-40.945 15.598-56.578 0l-28.285-28.281-79.203 79.199 50.914 50.914c28.137 28.082 73.703 28.082 101.84 0z"/>
</svg>
