<svg enable-background="new 0 0 512 512" version="1.1" viewBox="0 0 512 512" xml:space="preserve" xmlns="http://www.w3.org/2000/svg" class="icon">
<path d="M512,256c0,25.976-3.866,51.054-11.065,74.679c0,0.01,0,0.01-0.01,0.021  c-8.307,27.261-21.023,52.59-37.345,75.149v0.01c-23.27,32.172-53.844,58.723-89.276,77.218  c-10.439,5.454-21.295,10.209-32.507,14.19c-9.091,3.239-18.422,5.966-27.961,8.171h-0.01C295.236,509.733,275.895,512,256,512  c-41.535,0-80.75-9.885-115.43-27.439c-32.423-16.405-60.886-39.508-83.55-67.49c-20.605-25.412-36.425-54.847-46.122-86.946  C3.814,306.667,0,281.778,0,256C0,114.615,114.615,0,256,0S512,114.615,512,256z" fill="#264D6F"/>
<path d="m372.12 111.78v126.29c0 29.727-24.095 53.823-53.823 53.823h-129.37c-37.397 0-67.709 30.323-67.709 67.72v62.025h-42.298c-7.659 0-15.015-1.515-21.901-4.566-20.605-25.412-36.425-54.847-46.122-86.946-0.763-7.92-1.16-16.374-1.16-25.36 0-78.461 30.981-116.87 69.183-116.87h177.79v-18.223h-118.32v-57.887c0-29.393 52.328-53.227 116.87-53.227s116.86 23.833 116.86 53.226z" fill="#3876AC"/>
<circle cx="189.32" cy="116.62" r="21.506" fill="#F2F2F2"/>
<path d="m502.95 298.03c0 11.786-0.7 22.674-2.017 32.653 0 0.01 0 0.01-0.01 0.021-8.307 27.261-21.023 52.59-37.345 75.149v0.01c-9.028 6.029-19.132 9.028-29.8 9.028h-177.79v18.233h118.31v49.957c-10.439 5.454-21.295 10.209-32.507 14.19-9.091 3.239-18.422 5.966-27.961 8.171h-0.01c-18.59 4.295-37.931 6.562-57.826 6.562-41.535 0-80.75-9.885-115.43-27.439v-119.84c0-29.727 24.106-53.833 53.833-53.833h129.37c37.397 0 67.709-30.313 67.709-67.709v-62.025h42.297c38.202-1e-3 69.173 37.615 69.173 116.87z" fill="#F7CD00"/>
<path d="m344.88 486.17c0 4.065-1.128 7.868-3.082 11.097-9.091 3.239-18.422 5.966-27.961 8.171h-0.01c-7.084-3.511-11.954-10.825-11.954-19.268 0-11.88 9.624-21.504 21.504-21.504 11.879 0 21.503 9.624 21.503 21.504z" fill="#F2F2F2"/>
</svg>
